<svg xmlns="http://www.w3.org/2000/svg" fill="none" viewBox="0 0 88.83 88.80981595092024" style="max-height: 500px" width="88.83" height="88.80981595092024">
<path fill="white" d="M0 44C0 19.6995 19.6995 0 44 0V0C68.3005 0 88 19.6995 88 44V44C88 68.3005 68.3005 88 44 88V88C19.6995 88 0 68.3005 0 44V44Z"/>
<path fill="#772056" d="M48.2667 20.3754C59.502 20.3754 68.9714 28.7019 70.9005 39.8124H48.2667V48.1877H70.9005C68.9714 59.2982 59.502 67.6248 48.2667 67.6248V76.0001C65.681 76.0001 79.6346 61.5819 79.6346 44.0001C79.6346 26.4182 65.681 12.0001 48.2667 12.0001V20.3754Z"/>
<path fill="#17283C" d="M18.4983 21.15C23.6656 15.9397 30.0001 12 39.9704 12.0001V75.9211H39.4111C36.7484 75.9211 34.1051 75.4668 31.5951 74.5779V21.9101C29.4219 22.9084 26.8845 24.5879 24.445 27.0477C20.2922 31.235 17.0308 37.1102 16.7409 44.0803C16.7594 49.7939 18.7475 55.0145 22.0346 59.0814V70.0742C10.6568 61.7779 8.36548 53.3687 8.36548 44.0001V43.92L8.36854 43.8399C8.7325 34.3315 13.1657 26.5269 18.4983 21.15Z"/>
<path fill="white" d="M125.867 30.5877L125.166 28.5841H122.427L121.726 30.5877H120.486L123.152 23.3432H124.456L127.117 30.5877H125.867ZM124.863 27.5675L124.181 25.5935C124.155 25.508 124.118 25.3879 124.069 25.2333C124.02 25.0754 123.971 24.9158 123.922 24.7546C123.873 24.5901 123.832 24.4519 123.799 24.34C123.766 24.4749 123.726 24.6263 123.677 24.7941C123.631 24.9586 123.585 25.1132 123.539 25.2579C123.497 25.4027 123.464 25.5146 123.441 25.5935L122.755 27.5675H124.863Z"/>
<path fill="white" d="M136.093 30.5877V23.3728H140.465V24.3746H137.27V26.2894H138.127C138.807 26.2894 139.353 26.3798 139.764 26.5608C140.176 26.7384 140.473 26.9868 140.656 27.306C140.839 27.6251 140.931 27.9919 140.931 28.4065C140.931 29.0941 140.714 29.6304 140.279 30.0153C139.848 30.3969 139.147 30.5877 138.176 30.5877H136.093ZM137.27 29.6007H138.103C138.655 29.6007 139.065 29.507 139.333 29.3194C139.601 29.1286 139.735 28.8243 139.735 28.4065C139.735 28.1137 139.67 27.8867 139.539 27.7254C139.408 27.5609 139.212 27.4458 138.951 27.38C138.693 27.3142 138.366 27.2813 137.97 27.2813H137.27V29.6007Z"/>
<path fill="white" d="M156.759 26.9704C156.759 27.5264 156.689 28.0331 156.548 28.4904C156.411 28.9444 156.203 29.3359 155.926 29.6649C155.648 29.9906 155.3 30.2423 154.882 30.4199C154.463 30.5976 153.973 30.6864 153.411 30.6864C152.84 30.6864 152.343 30.5976 151.921 30.4199C151.503 30.2423 151.155 29.989 150.877 29.66C150.603 29.331 150.397 28.9378 150.26 28.4805C150.123 28.0232 150.054 27.5165 150.054 26.9605C150.054 26.217 150.175 25.5689 150.417 25.0161C150.662 24.4601 151.033 24.0291 151.529 23.7232C152.029 23.4139 152.66 23.2593 153.421 23.2593C154.166 23.2593 154.785 23.4123 155.279 23.7182C155.772 24.0242 156.141 24.4552 156.386 25.0112C156.635 25.5639 156.759 26.217 156.759 26.9704ZM151.289 26.9704C151.289 27.5264 151.364 28.0084 151.515 28.4163C151.665 28.821 151.895 29.1336 152.206 29.354C152.519 29.5711 152.921 29.6797 153.411 29.6797C153.905 29.6797 154.307 29.5711 154.617 29.354C154.927 29.1336 155.156 28.821 155.303 28.4163C155.45 28.0084 155.524 27.5264 155.524 26.9704C155.524 26.1249 155.355 25.4636 155.019 24.9865C154.686 24.5062 154.153 24.266 153.421 24.266C152.931 24.266 152.527 24.3746 152.211 24.5917C151.897 24.8089 151.665 25.1198 151.515 25.5244C151.364 25.9258 151.289 26.4078 151.289 26.9704Z"/>
<path fill="white" d="M168.411 23.3728C169.336 23.3728 170.01 23.5636 170.435 23.9452C170.86 24.3269 171.072 24.8615 171.072 25.5491C171.072 25.8617 171.023 26.1594 170.925 26.4423C170.831 26.722 170.674 26.9704 170.455 27.1875C170.236 27.4014 169.947 27.5708 169.587 27.6958C169.231 27.8209 168.792 27.8834 168.269 27.8834H167.504V30.5877H166.328V23.3728H168.411ZM168.333 24.3548H167.504V26.8964H168.146C168.516 26.8964 168.829 26.8536 169.087 26.7681C169.346 26.6792 169.542 26.5394 169.676 26.3486C169.81 26.1578 169.877 25.9061 169.877 25.5935C169.877 25.1757 169.751 24.8648 169.499 24.6608C169.251 24.4568 168.862 24.3548 168.333 24.3548Z"/>
<path fill="white" d="M184.974 30.5877L184.273 28.5841H181.534L180.833 30.5877H179.593L182.259 23.3432H183.563L186.224 30.5877H184.974ZM183.97 27.5675L183.288 25.5935C183.262 25.508 183.225 25.3879 183.176 25.2333C183.126 25.0754 183.078 24.9158 183.028 24.7546C182.979 24.5901 182.939 24.4519 182.906 24.34C182.873 24.4749 182.832 24.6263 182.783 24.7941C182.738 24.9586 182.692 25.1132 182.646 25.2579C182.604 25.4027 182.571 25.5146 182.548 25.5935L181.862 27.5675H183.97Z"/>
<path fill="white" d="M197.685 30.5877H196.504V24.3795H194.406V23.3728H199.778V24.3795H197.685V30.5877Z"/>
<path fill="white" d="M215.268 26.9704C215.268 27.5264 215.198 28.0331 215.057 28.4904C214.92 28.9444 214.712 29.3359 214.435 29.6649C214.157 29.9906 213.809 30.2423 213.391 30.4199C212.972 30.5976 212.482 30.6864 211.92 30.6864C211.348 30.6864 210.852 30.5976 210.43 30.4199C210.012 30.2423 209.664 29.989 209.386 29.66C209.112 29.331 208.906 28.9378 208.769 28.4805C208.632 28.0232 208.563 27.5165 208.563 26.9605C208.563 26.217 208.684 25.5689 208.926 25.0161C209.171 24.4601 209.542 24.0291 210.038 23.7232C210.538 23.4139 211.169 23.2593 211.93 23.2593C212.675 23.2593 213.294 23.4123 213.788 23.7182C214.281 24.0242 214.65 24.4552 214.895 25.0112C215.144 25.5639 215.268 26.217 215.268 26.9704ZM209.798 26.9704C209.798 27.5264 209.873 28.0084 210.023 28.4163C210.174 28.821 210.404 29.1336 210.715 29.354C211.028 29.5711 211.43 29.6797 211.92 29.6797C212.414 29.6797 212.816 29.5711 213.126 29.354C213.436 29.1336 213.665 28.821 213.812 28.4163C213.959 28.0084 214.033 27.5264 214.033 26.9704C214.033 26.1249 213.864 25.4636 213.528 24.9865C213.195 24.5062 212.662 24.266 211.93 24.266C211.44 24.266 211.036 24.3746 210.719 24.5917C210.406 24.8089 210.174 25.1198 210.023 25.5244C209.873 25.9258 209.798 26.4078 209.798 26.9704Z"/>
<path fill="white" d="M226.92 23.3728C227.845 23.3728 228.519 23.5636 228.944 23.9452C229.369 24.3269 229.581 24.8615 229.581 25.5491C229.581 25.8617 229.532 26.1594 229.434 26.4423C229.34 26.722 229.183 26.9704 228.964 27.1875C228.745 27.4014 228.456 27.5708 228.096 27.6958C227.74 27.8209 227.301 27.8834 226.778 27.8834H226.013V30.5877H224.837V23.3728H226.92ZM226.842 24.3548H226.013V26.8964H226.655C227.025 26.8964 227.338 26.8536 227.596 26.7681C227.854 26.6792 228.051 26.5394 228.185 26.3486C228.318 26.1578 228.385 25.9061 228.385 25.5935C228.385 25.1757 228.26 24.8648 228.008 24.6608C227.76 24.4568 227.371 24.3548 226.842 24.3548Z"/>
<path fill="white" d="M239.048 23.3728H240.121V27.1974C240.121 27.3619 240.119 27.5429 240.116 27.7402C240.113 27.9376 240.106 28.1301 240.096 28.3176C240.09 28.5052 240.083 28.673 240.077 28.821C240.07 28.9658 240.064 29.0711 240.057 29.1369H240.092L243.738 23.3728H245.106V30.5877H244.042V26.7927C244.042 26.6151 244.045 26.4226 244.052 26.2153C244.058 26.0081 244.066 25.8074 244.076 25.6133C244.086 25.4192 244.096 25.2481 244.106 25.1C244.115 24.952 244.122 24.8467 244.125 24.7842H244.081L240.425 30.5877H239.048V23.3728Z"/>
<path fill="white" d="M257.272 27.6958L255.503 30.5877H254.17L256.194 27.4145C255.965 27.3323 255.745 27.2138 255.532 27.0592C255.323 26.9046 255.152 26.694 255.018 26.4275C254.887 26.1578 254.822 25.8205 254.822 25.4159C254.822 24.7513 255.05 24.2446 255.508 23.8959C255.969 23.5472 256.634 23.3728 257.503 23.3728H259.654V30.5877H258.478V27.6958H257.272ZM258.478 24.3548H257.552C257.222 24.3548 256.942 24.3943 256.714 24.4733C256.485 24.549 256.312 24.6707 256.194 24.8385C256.076 25.003 256.018 25.2201 256.018 25.4899C256.018 25.8781 256.145 26.1791 256.4 26.393C256.655 26.6068 257.044 26.7138 257.566 26.7138H258.478V24.3548Z"/>
<path fill="white" d="M110.172 30.5877L109.471 28.5841L109.167 27.5675L108.486 25.5935C108.46 25.508 108.422 25.3879 108.373 25.2333C108.324 25.0754 108.275 24.9158 108.226 24.7546C108.177 24.5901 108.141 24.5563 108.109 24.4445C108.076 24.5794 108.03 24.6263 107.981 24.7941C107.935 24.9586 107.889 25.1132 107.844 25.2579C107.801 25.4027 107.768 25.5146 107.746 25.5935L107.059 27.5675L106.731 28.5841L106.03 30.5877H104.79L107.456 23.3432H108.76L111.421 30.5877H110.172Z"/>
<path fill="white" d="M247.17 39.4568H259.654C259.654 44.9996 257.775 47.1672 255.967 49.2526C255.739 49.5156 255.512 49.7774 255.29 50.0445H259.654V51.7827C259.654 58.9393 254.485 64.7408 247.328 64.7408H247.17V61.2642H247.328C251.971 61.2642 255.202 57.9273 256.019 53.521H247.17V50.0445C253.57 50.0445 255.29 45.6988 255.29 42.9334H247.17V39.4568Z"/>
<path fill="white" d="M134.183 42.6157V39.6938H130.706V42.6157C130.706 44.1251 130.152 45.582 129.149 46.7102L125.975 50.2815H125.424L125.491 39.705L122.015 39.6827L121.857 64.3346L125.333 64.3568L125.401 53.758H125.92L129.356 58.0525C130.23 59.1453 130.706 60.5031 130.706 61.9025V64.3457H134.183V61.9025C134.183 59.7136 133.438 57.59 132.07 55.8807L129.029 52.0788L131.748 49.0199C133.316 47.2553 134.183 44.9766 134.183 42.6157Z"/>
<path fill="white" d="M104 42.9199C108.415 42.9199 112.136 46.1272 112.894 50.4068H104V53.6328H112.894C112.136 57.9124 108.415 61.1197 104 61.1197V64.3457C110.843 64.3457 116.326 58.792 116.326 52.0198C116.326 45.2475 110.843 39.6938 104 39.6938V42.9199Z"/>
<path fill="white" d="M187.911 42.9199C183.496 42.9199 179.775 46.1272 179.017 50.4068H187.911V53.6328H179.017C179.775 57.9124 183.496 61.1197 187.911 61.1197V64.3457C181.068 64.3457 175.585 58.792 175.585 52.0198C175.585 45.2475 181.068 39.6938 187.911 39.6938V42.9199Z"/>
<path fill="white" d="M193.6 64.5037H196.76V53.6328H205.821C205.89 53.1046 205.926 52.5661 205.926 52.0198C205.926 45.2475 200.443 39.6938 193.6 39.6938V64.5037ZM196.76 50.4068H202.494C201.926 47.2025 199.698 44.5993 196.76 43.4935V50.4068Z" clip-rule="evenodd" fill-rule="evenodd"/>
<path fill="white" d="M152.198 42.9199C147.783 42.9199 143.304 46.5679 143.304 52.0198C143.304 57.7087 147.783 61.1197 152.198 61.1197V64.3457C145.355 64.3457 139.872 58.792 139.872 52.0198C139.872 45.2475 145.355 39.6938 152.198 39.6938V42.9199Z"/>
<path fill="white" d="M170.054 39.6938H157.728V64.3457H161.047V42.8543H166.736V64.3457H170.054V39.6938Z"/>
<path fill="white" d="M238.005 39.6938H241.323V64.3457H238.163V53.9161C236.253 54.484 234.541 55.5783 233.223 57.0737L232.316 58.1037V64.3457H229.156V39.6938H232.316V53.205L232.969 52.7464C234.456 51.7013 236.194 51.0688 238.005 50.9136V39.6938Z"/>
<path fill="white" d="M223.783 39.6938H211.141V43.1704H215.723V64.3457H219.2V43.1704H223.783V39.6938Z"/>
</svg>